<?xml version="1.0" encoding="UTF-8"?>
<svg width="512px" height="512px" viewBox="0 0 512 512" xmlns="http://www.w3.org/2000/svg" xmlns:xlink="http://www.w3.org/1999/xlink" version="1.1">
 <!-- Generated by Pixelmator Pro 2.2 -->
 <g id="group">
  <g id="group-1">
   <path id="Path" d="M166 16 C158.156 16 151 23.353 151 31 L151 61 166 61 166 91 106 91 C37.76 91 30.996 144.136 31 166 L31 436 C31.002 447.74 16 466 16 466 L16 496 496 496 496 466 C496 466 480.998 447.74 481 436 L481 166 C481.004 144.136 474.24 91 406 91 L346 91 346 61 361 61 361 31 C361 23.353 353.844 16 346 16 Z" fill="none" stroke="none"/>
   <path id="Path-1" d="M238.03 61 C239.075 60.993 240.062 61 241 61 L271 61 C286 61 316 61 316 91 L196 91 C196 62.875 222.376 61.11 238.03 61 Z" fill="none" stroke="none"/>
   <path id="Path-2" d="M121 151 L391 151 C410.21 151 421 161.98 421 181 L421 421 C421 429.467 413.267 436 406 436 L106 436 C98.733 436 91 429.467 91 421 L91 181 C91 161.98 101.79 151 121 151 Z" fill="none" stroke="none"/>
   <path id="Path-3" d="M151 181 C151 181 121 202.842 121 241 L121 346 181 346 181 241 C181 202.842 151 181 151 181 Z" fill="#ffffff" fill-opacity="1" stroke="none"/>
   <path id="Path-4" d="M256 181 C256 181 226 202.842 226 241 L226 346 286 346 286 241 C286 202.842 256 181 256 181 Z" fill="#ffffff" fill-opacity="1" stroke="none"/>
   <path id="Path-5" d="M361 181 C361 181 331 202.842 331 241 L331 346 391 346 391 241 C391 202.842 361 181 361 181 Z" fill="#ffffff" fill-opacity="1" stroke="none"/>
   <path id="Path-6" d="M121 361 L121 391 181 391 181 361 Z" fill="#ffffff" fill-opacity="1" stroke="none"/>
   <path id="Path-7" d="M226 361 L226 391 286 391 286 361 Z" fill="#ffffff" fill-opacity="1" stroke="none"/>
   <path id="Path-8" d="M331 361 L331 391 391 391 391 361 Z" fill="#ffffff" fill-opacity="1" stroke="none"/>
  </g>
 </g>
</svg>
