<svg style="height: 512px; width: 512px;" xmlns="http://www.w3.org/2000/svg" viewBox="0 0 512 512"><g class="" style="" transform="translate(0,0)"><g><path d="M53.588 9.594L8.162 10.184L8.162 44.992L70.107 110.477L152.7 82.16L171.578 115.197L194.826 119.072L174.268 166.352L169.808 172.566L187.838 194.518L143.383 271.902L172.557 303.779C177.355 299.599 182.057 295.489 186.631 291.474L166.396 269.362L200.521 209.956L233.253 249.804C237.999 245.472 242.603 241.239 247.028 237.13L193.364 171.8L227.792 123.848L298.104 119.348L309.794 174.608C314.686 169.176 319.174 163.988 323.204 159.062C323.854 158.267 324.478 157.487 325.107 156.705L314.207 105.175L314.139 105.188L313.169 97.5L189.279 95.73L177.481 36.145L87.808 70.953L53.59 9.598L53.588 9.594Z" class="" fill="#ffffff" fill-opacity="0"></path><path d="M487.088 31.311C466.618 47.245 446.793 58.996 426.543 67.261C430.503 114.771 401.533 166.385 355.885 218.071C309.675 270.395 245.513 323.006 176.459 370.138L165.923 354.7C234.073 308.186 297.243 256.238 341.876 205.7C384.096 157.89 408.924 111.544 408.173 73.768C398.341 76.744 388.34 78.982 378.053 80.541C377.563 107.903 366.788 135.287 337.665 170.894C305.508 210.21 251.025 261.014 160.983 338.632L153.366 345.197L119.272 299.234L100.038 315.582C119.318 330.912 129.788 344.72 146.878 363.348L153.33 370.378L146.166 376.682C121.486 398.394 96.122 418.37 69.408 436.844C64.331 433.234 58.148 431.098 51.5 431.098C34.438 431.098 20.406 445.13 20.406 462.191C20.406 479.251 34.438 493.284 51.5 493.284C68.562 493.284 82.594 479.252 82.594 462.19C82.594 459.61 82.268 457.1 81.664 454.697C108.319 434.163 135.94 415.327 163.949 396.451L171.147 391.603L176.515 398.421C193.008 419.371 208.868 441.721 224.525 464.761L244.681 447.339L198.739 394.749L207.304 388.789C338.508 297.489 417.476 222.613 458.054 162.069C494.814 107.222 500.324 65.533 487.087 31.312Z" class="" fill="#fff" fill-opacity="1"></path><path d="M443.168 212.308C434.675 222.288 425.328 232.535 415.082 243.065L357.445 337.507L416.975 430.107L362.065 496.019L376.425 507.981L440.109 431.534L379.495 337.249L405.455 294.714L437.945 297.468L428.067 368.268L498.554 381.603L502.028 363.239L449.035 353.214L459.18 280.511L416.338 276.881L442.468 234.064L474.548 254.644L512.596 244.584L507.818 226.514L477.718 234.474L452.208 218.108L452.232 218.065L452.078 218.025L443.166 212.308Z" class="" fill="#ffffff" fill-opacity="0"></path><path d="M271.538 365.524C266.228 369.467 260.788 373.451 255.278 377.458L312 412.385L310.553 500.748L329.238 501.055L330.858 402.051L271.535 365.524Z" class="" fill="#ffffff" fill-opacity="0"></path><path d="M172.448 423.854L150.798 461.446L177.008 507.972L193.288 498.799L172.305 461.549L184.59 440.219C180.565 434.689 176.52 429.233 172.447 423.856Z" class="" fill="#ffffff" fill-opacity="0"></path><path d="M51.5 449.79C58.46 449.79 63.9 455.23 63.9 462.19C63.9 469.15 58.46 474.592 51.5 474.592C44.54 474.592 39.1 469.15 39.1 462.19C39.1 455.23 44.54 449.79 51.502 449.79Z" class="selected" fill="#7ed321" fill-opacity="0"></path></g></g></svg>